# xmcd CD database file
#
# Track frame offsets:
#	150
#	13763
#	37010
#	65428
#	75062
#	91173
#	102720
#	115817
#	126532
#	131468
#	143370
#	149275
#	158817
#	190100
#	214612
#	219972
#
# Disc length: 3013 seconds
#
# Revision: 0
# Processed by: cddbd v1.5.2PL0 Copyright (c) Steve Scherf et al.
# Submitted via: CDex 1.51
#
DISCID=d80bc310
DTITLE=Clark Terry - Clark Terry and The Young Titans Of Jazz 2
DYEAR=2005
DGENRE=Jazz
TTITLE0=My First Indulgence and Entrée To Jazz
TTITLE1=Giving Vent To Your Feelings
TTITLE2=Why The Trumpet?
TTITLE3=First Influences
TTITLE4=The Great Lakes Navy Band
TTITLE5=Ellington
TTITLE6=Basie
TTITLE7=Prez And Pops (The Stuff You Won't Find In Books)
TTITLE8=Basie's Small Band
TTITLE9=Quincy
TTITLE10=Miles
TTITLE11=The NBC Tonight Show Band
TTITLE12=Clinics, Workshops and Band Camps (The CT Philosophy)
TTITLE13=The Concept Behind This CD
TTITLE14=The CT Building And Jazz Studies Programs
TTITLE15=The Jazz Scene Today
EXTD=YEAR: 2005
EXTT0=
EXTT1=
EXTT2=
EXTT3=
EXTT4=
EXTT5=
EXTT6=
EXTT7=
EXTT8=
EXTT9=
EXTT10=
EXTT11=
EXTT12=
EXTT13=
EXTT14=
EXTT15=
PLAYORDER=
